<svg viewBox="0 0 40 40" width="100%" height="100%" xmlns="http://www.w3.org/2000/svg">
  <defs>
    <linearGradient id="nexusGrad1" x1="0%" y1="0%" x2="100%" y2="100%">
      <stop offset="0%" stop-color="#8B5CF6"/>
      <stop offset="100%" stop-color="#3B82F6"/>
    </linearGradient>
    <linearGradient id="nexusGrad2" x1="100%" y1="0%" x2="0%" y2="100%">
      <stop offset="0%" stop-color="#10B981"/>
      <stop offset="100%" stop-color="#06B6D4"/>
    </linearGradient>
    <filter id="glow" x="-20%" y="-20%" width="140%" height="140%">
      <feGaussianBlur stdDeviation="1.5" result="blur" />
      <feComposite in="SourceGraphic" in2="blur" operator="over" />
    </filter>
  </defs>
  
  <g transform="translate(20,20) rotate(30) translate(-20,-20)">
    <polygon points="20,2 38,11 38,29 20,38 2,29 2,11" fill="none" stroke="url(#nexusGrad1)" stroke-width="2" filter="url(#glow)"/>
  </g>
  
  <polygon points="20,4 34,12 34,28 20,36 6,28 6,12" fill="none" stroke="url(#nexusGrad2)" stroke-width="1"/>
  
  <line x1="20" y1="4" x2="20" y2="20" stroke="url(#nexusGrad1)" stroke-width="2" filter="url(#glow)"/>
  <line x1="6" y1="28" x2="20" y2="20" stroke="url(#nexusGrad1)" stroke-width="2" filter="url(#glow)"/>
  <line x1="34" y1="28" x2="20" y2="20" stroke="url(#nexusGrad1)" stroke-width="2" filter="url(#glow)"/>
  
  <circle cx="20" cy="20" r="3.5" fill="#F43F5E" filter="url(#glow)"/>
  
  <circle cx="20" cy="4" r="1.5" fill="#FFF" filter="url(#glow)"/>
  <circle cx="34" cy="12" r="1.5" fill="#FFF" filter="url(#glow)"/>
  <circle cx="34" cy="28" r="1.5" fill="#FFF" filter="url(#glow)"/>
  <circle cx="20" cy="36" r="1.5" fill="#FFF" filter="url(#glow)"/>
  <circle cx="6" cy="28" r="1.5" fill="#FFF" filter="url(#glow)"/>
  <circle cx="6" cy="12" r="1.5" fill="#FFF" filter="url(#glow)"/>
</svg>
